<?xml version="1.0" encoding="UTF-8" ?>
<svg version="1.1" width="780" height="420" xmlns="http://www.w3.org/2000/svg">
<rect x="300" y="0" width="30" height="30" fill="#000000" />
<rect x="330" y="0" width="30" height="30" fill="#000000" />
<rect x="360" y="0" width="30" height="30" fill="#000000" />
<rect x="390" y="0" width="30" height="30" fill="#000000" />
<rect x="420" y="0" width="30" height="30" fill="#000000" />
<rect x="450" y="0" width="30" height="30" fill="#000000" />
<rect x="240" y="30" width="30" height="30" fill="#000000" />
<rect x="270" y="30" width="30" height="30" fill="#000000" />
<rect x="300" y="30" width="30" height="30" fill="#FFD54F" />
<rect x="330" y="30" width="30" height="30" fill="#FFD54F" />
<rect x="360" y="30" width="30" height="30" fill="#FFD54F" />
<rect x="390" y="30" width="30" height="30" fill="#FFD54F" />
<rect x="420" y="30" width="30" height="30" fill="#FFD54F" />
<rect x="450" y="30" width="30" height="30" fill="#FFD54F" />
<rect x="480" y="30" width="30" height="30" fill="#000000" />
<rect x="510" y="30" width="30" height="30" fill="#000000" />
<rect x="210" y="60" width="30" height="30" fill="#000000" />
<rect x="240" y="60" width="30" height="30" fill="#FFE082" />
<rect x="270" y="60" width="30" height="30" fill="#FFE082" />
<rect x="300" y="60" width="30" height="30" fill="#FFD54F" />
<rect x="330" y="60" width="30" height="30" fill="#FFD54F" />
<rect x="360" y="60" width="30" height="30" fill="#FFD54F" />
<rect x="390" y="60" width="30" height="30" fill="#FFD54F" />
<rect x="420" y="60" width="30" height="30" fill="#FFD54F" />
<rect x="450" y="60" width="30" height="30" fill="#FFD54F" />
<rect x="480" y="60" width="30" height="30" fill="#FFE082" />
<rect x="510" y="60" width="30" height="30" fill="#FFE082" />
<rect x="540" y="60" width="30" height="30" fill="#000000" />
<rect x="210" y="90" width="30" height="30" fill="#000000" />
<rect x="240" y="90" width="30" height="30" fill="#FFD54F" />
<rect x="270" y="90" width="30" height="30" fill="#FFD54F" />
<rect x="300" y="90" width="30" height="30" fill="#FFE082" />
<rect x="330" y="90" width="30" height="30" fill="#FFE082" />
<rect x="360" y="90" width="30" height="30" fill="#FFE082" />
<rect x="390" y="90" width="30" height="30" fill="#FFE082" />
<rect x="420" y="90" width="30" height="30" fill="#FFE082" />
<rect x="450" y="90" width="30" height="30" fill="#FFE082" />
<rect x="480" y="90" width="30" height="30" fill="#FFD54F" />
<rect x="510" y="90" width="30" height="30" fill="#FFD54F" />
<rect x="540" y="90" width="30" height="30" fill="#000000" />
<rect x="120" y="120" width="30" height="30" fill="#000000" />
<rect x="150" y="120" width="30" height="30" fill="#000000" />
<rect x="180" y="120" width="30" height="30" fill="#000000" />
<rect x="210" y="120" width="30" height="30" fill="#FFB300" />
<rect x="240" y="120" width="30" height="30" fill="#FFB300" />
<rect x="270" y="120" width="30" height="30" fill="#FFD54F" />
<rect x="300" y="120" width="30" height="30" fill="#FFD54F" />
<rect x="330" y="120" width="30" height="30" fill="#FFD54F" />
<rect x="360" y="120" width="30" height="30" fill="#FFD54F" />
<rect x="390" y="120" width="30" height="30" fill="#FFD54F" />
<rect x="420" y="120" width="30" height="30" fill="#FFD54F" />
<rect x="450" y="120" width="30" height="30" fill="#FFD54F" />
<rect x="480" y="120" width="30" height="30" fill="#FFD54F" />
<rect x="510" y="120" width="30" height="30" fill="#FFB300" />
<rect x="540" y="120" width="30" height="30" fill="#FFB300" />
<rect x="570" y="120" width="30" height="30" fill="#000000" />
<rect x="600" y="120" width="30" height="30" fill="#000000" />
<rect x="630" y="120" width="30" height="30" fill="#000000" />
<rect x="30" y="150" width="30" height="30" fill="#000000" />
<rect x="60" y="150" width="30" height="30" fill="#000000" />
<rect x="90" y="150" width="30" height="30" fill="#000000" />
<rect x="180" y="150" width="30" height="30" fill="#000000" />
<rect x="210" y="150" width="30" height="30" fill="#FFC107" />
<rect x="240" y="150" width="30" height="30" fill="#FFC107" />
<rect x="270" y="150" width="30" height="30" fill="#FFB300" />
<rect x="300" y="150" width="30" height="30" fill="#FFB300" />
<rect x="330" y="150" width="30" height="30" fill="#FFB300" />
<rect x="360" y="150" width="30" height="30" fill="#FFB300" />
<rect x="390" y="150" width="30" height="30" fill="#FFB300" />
<rect x="420" y="150" width="30" height="30" fill="#FFB300" />
<rect x="450" y="150" width="30" height="30" fill="#FFB300" />
<rect x="480" y="150" width="30" height="30" fill="#FFB300" />
<rect x="510" y="150" width="30" height="30" fill="#FFC107" />
<rect x="540" y="150" width="30" height="30" fill="#FFC107" />
<rect x="570" y="150" width="30" height="30" fill="#000000" />
<rect x="660" y="150" width="30" height="30" fill="#000000" />
<rect x="690" y="150" width="30" height="30" fill="#000000" />
<rect x="720" y="150" width="30" height="30" fill="#000000" />
<rect x="0" y="180" width="30" height="30" fill="#000000" />
<rect x="180" y="180" width="30" height="30" fill="#000000" />
<rect x="210" y="180" width="30" height="30" fill="#FFE082" />
<rect x="240" y="180" width="30" height="30" fill="#FFE082" />
<rect x="270" y="180" width="30" height="30" fill="#FFC107" />
<rect x="300" y="180" width="30" height="30" fill="#FFC107" />
<rect x="330" y="180" width="30" height="30" fill="#FFC107" />
<rect x="360" y="180" width="30" height="30" fill="#FFC107" />
<rect x="390" y="180" width="30" height="30" fill="#FFC107" />
<rect x="420" y="180" width="30" height="30" fill="#FFC107" />
<rect x="450" y="180" width="30" height="30" fill="#FFC107" />
<rect x="480" y="180" width="30" height="30" fill="#FFC107" />
<rect x="510" y="180" width="30" height="30" fill="#FFE082" />
<rect x="540" y="180" width="30" height="30" fill="#FFE082" />
<rect x="570" y="180" width="30" height="30" fill="#000000" />
<rect x="750" y="180" width="30" height="30" fill="#000000" />
<rect x="30" y="210" width="30" height="30" fill="#000000" />
<rect x="60" y="210" width="30" height="30" fill="#000000" />
<rect x="90" y="210" width="30" height="30" fill="#000000" />
<rect x="180" y="210" width="30" height="30" fill="#000000" />
<rect x="210" y="210" width="30" height="30" fill="#FFE082" />
<rect x="240" y="210" width="30" height="30" fill="#FFE082" />
<rect x="270" y="210" width="30" height="30" fill="#FFE082" />
<rect x="300" y="210" width="30" height="30" fill="#FFE082" />
<rect x="330" y="210" width="30" height="30" fill="#FFE082" />
<rect x="360" y="210" width="30" height="30" fill="#FFE082" />
<rect x="390" y="210" width="30" height="30" fill="#FFE082" />
<rect x="420" y="210" width="30" height="30" fill="#FFE082" />
<rect x="450" y="210" width="30" height="30" fill="#FFE082" />
<rect x="480" y="210" width="30" height="30" fill="#FFE082" />
<rect x="510" y="210" width="30" height="30" fill="#FFE082" />
<rect x="540" y="210" width="30" height="30" fill="#FFE082" />
<rect x="570" y="210" width="30" height="30" fill="#000000" />
<rect x="660" y="210" width="30" height="30" fill="#000000" />
<rect x="690" y="210" width="30" height="30" fill="#000000" />
<rect x="720" y="210" width="30" height="30" fill="#000000" />
<rect x="120" y="240" width="30" height="30" fill="#000000" />
<rect x="150" y="240" width="30" height="30" fill="#000000" />
<rect x="180" y="240" width="30" height="30" fill="#000000" />
<rect x="210" y="240" width="30" height="30" fill="#000000" />
<rect x="240" y="240" width="30" height="30" fill="#000000" />
<rect x="270" y="240" width="30" height="30" fill="#000000" />
<rect x="300" y="240" width="30" height="30" fill="#000000" />
<rect x="330" y="240" width="30" height="30" fill="#000000" />
<rect x="360" y="240" width="30" height="30" fill="#000000" />
<rect x="390" y="240" width="30" height="30" fill="#000000" />
<rect x="420" y="240" width="30" height="30" fill="#000000" />
<rect x="450" y="240" width="30" height="30" fill="#000000" />
<rect x="480" y="240" width="30" height="30" fill="#000000" />
<rect x="510" y="240" width="30" height="30" fill="#000000" />
<rect x="540" y="240" width="30" height="30" fill="#000000" />
<rect x="570" y="240" width="30" height="30" fill="#000000" />
<rect x="600" y="240" width="30" height="30" fill="#000000" />
<rect x="630" y="240" width="30" height="30" fill="#000000" />
<rect x="180" y="270" width="30" height="30" fill="#000000" />
<rect x="210" y="270" width="30" height="30" fill="#FFC107" />
<rect x="240" y="270" width="30" height="30" fill="#FFC107" />
<rect x="270" y="270" width="30" height="30" fill="#FFC107" />
<rect x="300" y="270" width="30" height="30" fill="#FFC107" />
<rect x="330" y="270" width="30" height="30" fill="#FFC107" />
<rect x="360" y="270" width="30" height="30" fill="#FFC107" />
<rect x="390" y="270" width="30" height="30" fill="#FFC107" />
<rect x="420" y="270" width="30" height="30" fill="#FFC107" />
<rect x="450" y="270" width="30" height="30" fill="#FFC107" />
<rect x="480" y="270" width="30" height="30" fill="#FFC107" />
<rect x="510" y="270" width="30" height="30" fill="#FFC107" />
<rect x="540" y="270" width="30" height="30" fill="#FFC107" />
<rect x="570" y="270" width="30" height="30" fill="#000000" />
<rect x="210" y="300" width="30" height="30" fill="#000000" />
<rect x="240" y="300" width="30" height="30" fill="#FFD54F" />
<rect x="270" y="300" width="30" height="30" fill="#FFC107" />
<rect x="300" y="300" width="30" height="30" fill="#FFC107" />
<rect x="330" y="300" width="30" height="30" fill="#FFC107" />
<rect x="360" y="300" width="30" height="30" fill="#FFC107" />
<rect x="390" y="300" width="30" height="30" fill="#FFC107" />
<rect x="420" y="300" width="30" height="30" fill="#FFC107" />
<rect x="450" y="300" width="30" height="30" fill="#FFC107" />
<rect x="480" y="300" width="30" height="30" fill="#FFC107" />
<rect x="510" y="300" width="30" height="30" fill="#FFD54F" />
<rect x="540" y="300" width="30" height="30" fill="#000000" />
<rect x="210" y="330" width="30" height="30" fill="#000000" />
<rect x="240" y="330" width="30" height="30" fill="#FFD54F" />
<rect x="270" y="330" width="30" height="30" fill="#FFD54F" />
<rect x="300" y="330" width="30" height="30" fill="#FFD54F" />
<rect x="330" y="330" width="30" height="30" fill="#FFD54F" />
<rect x="360" y="330" width="30" height="30" fill="#FFD54F" />
<rect x="390" y="330" width="30" height="30" fill="#FFD54F" />
<rect x="420" y="330" width="30" height="30" fill="#FFD54F" />
<rect x="450" y="330" width="30" height="30" fill="#FFD54F" />
<rect x="480" y="330" width="30" height="30" fill="#FFD54F" />
<rect x="510" y="330" width="30" height="30" fill="#FFD54F" />
<rect x="540" y="330" width="30" height="30" fill="#000000" />
<rect x="240" y="360" width="30" height="30" fill="#000000" />
<rect x="270" y="360" width="30" height="30" fill="#000000" />
<rect x="300" y="360" width="30" height="30" fill="#FFD54F" />
<rect x="330" y="360" width="30" height="30" fill="#FFD54F" />
<rect x="360" y="360" width="30" height="30" fill="#FFD54F" />
<rect x="390" y="360" width="30" height="30" fill="#FFD54F" />
<rect x="420" y="360" width="30" height="30" fill="#FFD54F" />
<rect x="450" y="360" width="30" height="30" fill="#FFD54F" />
<rect x="480" y="360" width="30" height="30" fill="#000000" />
<rect x="510" y="360" width="30" height="30" fill="#000000" />
<rect x="300" y="390" width="30" height="30" fill="#000000" />
<rect x="330" y="390" width="30" height="30" fill="#000000" />
<rect x="360" y="390" width="30" height="30" fill="#000000" />
<rect x="390" y="390" width="30" height="30" fill="#000000" />
<rect x="420" y="390" width="30" height="30" fill="#000000" />
<rect x="450" y="390" width="30" height="30" fill="#000000" />
</svg>